<svg xmlns="http://www.w3.org/2000/svg" xmlns:xlink="http://www.w3.org/1999/xlink" viewBox="0,0,256,256" width="50px" height="50px"><g fill="#ffffff" fill-rule="nonzero" stroke="none" stroke-width="1" stroke-linecap="butt" stroke-linejoin="miter" stroke-miterlimit="10" stroke-dasharray="" stroke-dashoffset="0" font-family="none" font-weight="none" font-size="none" text-anchor="none" style="mix-blend-mode: normal"><g transform="scale(5.12,5.12)"><path d="M42.71875,0.84375l-0.96875,0.25l-8.96875,2.40625c-0.05469,0.01172 -0.10156,0.01563 -0.15625,0.03125l-22.34375,6l-9.09375,2.4375l-0.96875,0.25l0.25,0.96875l2.15625,7.9375v0.0625l3.375,12.46875v12.34375h44v-26h-2.125l-4.90625,-18.21875zM41.28125,3.28125l1.125,4.21875c-0.20703,-0.05078 -0.42187,-0.12109 -0.625,-0.15625c-0.63281,-0.10156 -1.23047,-0.16016 -1.71875,-0.21875c-0.48828,-0.05859 -0.86328,-0.16406 -0.90625,-0.1875c-0.03906,-0.02344 -0.30859,-0.28516 -0.625,-0.6875c-0.31641,-0.40234 -0.72266,-0.91406 -1.21875,-1.40625c-0.125,-0.125 -0.26172,-0.25781 -0.40625,-0.375zM34.0625,5.34375c0.79688,-0.00391 1.29688,0.36328 1.84375,0.90625c0.36328,0.36328 0.69141,0.82031 1.03125,1.25c0.33984,0.42969 0.66016,0.86328 1.21875,1.1875c0.55859,0.32031 1.09766,0.36719 1.65625,0.4375c0.55859,0.07031 1.14063,0.10156 1.65625,0.1875c0.51563,0.08594 0.94141,0.21484 1.21875,0.375c0.25391,0.14844 0.38281,0.27734 0.46875,0.53125c0.00781,0.02344 0.02344,0.03516 0.03125,0.0625l2.59375,9.71875h-11.875c0.03906,-1.0625 -0.08203,-2.15625 -0.375,-3.25c-1.05859,-3.94922 -4.16016,-6.82422 -7.6875,-7.46875c-0.58594,-0.10547 -1.17969,-0.14844 -1.78125,-0.125c-0.60156,0.02344 -1.20703,0.11719 -1.8125,0.28125c-4.42187,1.1875 -7.04297,5.77344 -6.40625,10.5625h-9.84375v5.96875l-1.46875,-5.4375c-0.03516,-0.22266 -0.00781,-0.39453 0.125,-0.625c0.16016,-0.27734 0.47266,-0.63672 0.875,-0.96875c0.40234,-0.33203 0.89453,-0.62891 1.34375,-0.96875c0.44922,-0.33984 0.86719,-0.66016 1.1875,-1.21875h0.03125c0.32422,-0.55859 0.35938,-1.08594 0.4375,-1.625c0.07813,-0.53906 0.14844,-1.09766 0.28125,-1.59375c0.26953,-0.99219 0.625,-1.69141 2,-2.0625l22.34375,-6c0.34375,-0.09375 0.64063,-0.125 0.90625,-0.125zM24.125,11.125c3.24609,-0.10547 6.45313,2.36328 7.46875,6.15625c0.24609,0.92188 0.35156,1.83594 0.3125,2.71875h-14.03125c-0.66016,-4.00781 1.45313,-7.73828 4.875,-8.65625c0.46094,-0.125 0.91016,-0.20312 1.375,-0.21875zM38.96875,12.3125c-1.92187,0 -3.5,1.57813 -3.5,3.5c0,1.92188 1.57813,3.5 3.5,3.5c1.92188,0 3.5,-1.57812 3.5,-3.5c0,-1.92187 -1.57812,-3.5 -3.5,-3.5zM7.03125,12.5c-0.06641,0.17188 -0.10937,0.33203 -0.15625,0.5c-0.18359,0.67578 -0.23828,1.30469 -0.3125,1.8125c-0.07422,0.50781 -0.19531,0.89844 -0.21875,0.9375c-0.02344,0.04297 -0.29687,0.32813 -0.6875,0.625c-0.39062,0.29688 -0.87891,0.625 -1.375,1.03125c-0.16797,0.13672 -0.33594,0.28125 -0.5,0.4375l-1.125,-4.1875zM38.96875,14.3125c0.83984,0 1.5,0.66016 1.5,1.5c0,0.83984 -0.66016,1.5 -1.5,1.5c-0.83984,0 -1.5,-0.66016 -1.5,-1.5c0,-0.83984 0.66016,-1.5 1.5,-1.5zM8,22h4.53125c-0.10937,0.14844 -0.19141,0.31641 -0.28125,0.46875c-0.35156,0.60547 -0.60937,1.21875 -0.8125,1.6875c-0.20312,0.46875 -0.40625,0.78125 -0.4375,0.8125c-0.03516,0.03516 -0.35547,0.25391 -0.8125,0.4375c-0.45703,0.18359 -1.01172,0.39453 -1.59375,0.65625c-0.19531,0.08984 -0.39453,0.20703 -0.59375,0.3125zM16.4375,22h23.125c1.42578,0 1.95313,0.57813 2.46875,1.46875c0.25781,0.44531 0.47266,0.96875 0.6875,1.46875c0.21484,0.5 0.38672,1.01172 0.84375,1.46875c0.45313,0.45313 0.98047,0.63281 1.5,0.84375c0.51953,0.21094 1.05469,0.41016 1.53125,0.625c0.47656,0.21484 0.86719,0.46094 1.09375,0.6875c0.22656,0.22656 0.3125,0.36719 0.3125,0.6875v10c0,0.14063 -0.01172,0.16797 -0.125,0.28125c-0.11328,0.11328 -0.375,0.26563 -0.6875,0.40625c-0.3125,0.14063 -0.66016,0.28906 -1.03125,0.4375c-0.37109,0.14844 -0.77734,0.27734 -1.15625,0.65625c-0.38281,0.38281 -0.50391,0.74219 -0.65625,1.09375c-0.15234,0.35156 -0.30469,0.71484 -0.46875,1c-0.33203,0.57031 -0.55469,0.875 -1.4375,0.875h-28.875c-0.88281,0 -1.10547,-0.30469 -1.4375,-0.875c-0.16406,-0.28516 -0.31641,-0.64453 -0.46875,-1c-0.15234,-0.35547 -0.27344,-0.71094 -0.65625,-1.09375c-0.37891,-0.37891 -0.78516,-0.50781 -1.15625,-0.65625c-0.37109,-0.14844 -0.71875,-0.29687 -1.03125,-0.4375c-0.3125,-0.14062 -0.57422,-0.29297 -0.6875,-0.40625c-0.11328,-0.11328 -0.125,-0.14062 -0.125,-0.28125v-5.75h0.03125l-0.03125,-0.125v-4.125c0,-0.32031 0.08594,-0.46094 0.3125,-0.6875c0.22656,-0.22656 0.61719,-0.47266 1.09375,-0.6875c0.47656,-0.21484 1.01172,-0.41406 1.53125,-0.625c0.51953,-0.21094 1.04688,-0.39062 1.5,-0.84375c0.45703,-0.45703 0.625,-0.96875 0.84375,-1.46875c0.21875,-0.5 0.42969,-1.02344 0.6875,-1.46875c0.51563,-0.89062 1.04297,-1.46875 2.46875,-1.46875zM43.46875,22h4.53125v4.375c-0.19531,-0.10547 -0.39844,-0.22266 -0.59375,-0.3125c-0.58203,-0.26172 -1.13672,-0.47266 -1.59375,-0.65625c-0.45703,-0.18359 -0.77734,-0.40234 -0.8125,-0.4375c-0.03125,-0.03125 -0.23437,-0.34375 -0.4375,-0.8125c-0.20312,-0.46875 -0.46094,-1.08203 -0.8125,-1.6875c-0.08984,-0.15234 -0.17187,-0.32031 -0.28125,-0.46875zM28,23c-5.02734,0 -9,4.55078 -9,10c0,5.44922 3.97266,10 9,10c5.02734,0 9,-4.55078 9,-10c0,-5.44922 -3.97266,-10 -9,-10zM28,25c3.80859,0 7,3.51172 7,8c0,4.48828 -3.19141,8 -7,8c-3.80859,0 -7,-3.51172 -7,-8c0,-4.48828 3.19141,-8 7,-8zM13.5,30c-1.92187,0 -3.5,1.57813 -3.5,3.5c0,1.92188 1.57813,3.5 3.5,3.5c1.92188,0 3.5,-1.57812 3.5,-3.5c0,-1.92187 -1.57812,-3.5 -3.5,-3.5zM42.5,30c-1.92187,0 -3.5,1.57813 -3.5,3.5c0,1.92188 1.57813,3.5 3.5,3.5c1.92188,0 3.5,-1.57812 3.5,-3.5c0,-1.92187 -1.57812,-3.5 -3.5,-3.5zM13.5,32c0.83984,0 1.5,0.66016 1.5,1.5c0,0.83984 -0.66016,1.5 -1.5,1.5c-0.83984,0 -1.5,-0.66016 -1.5,-1.5c0,-0.83984 0.66016,-1.5 1.5,-1.5zM42.5,32c0.83984,0 1.5,0.66016 1.5,1.5c0,0.83984 -0.66016,1.5 -1.5,1.5c-0.83984,0 -1.5,-0.66016 -1.5,-1.5c0,-0.83984 0.66016,-1.5 1.5,-1.5zM8,41.78125c0.41016,0.18359 0.79297,0.31641 1.09375,0.4375c0.30469,0.125 0.51172,0.26172 0.46875,0.21875c-0.04297,-0.04297 0.10938,0.17969 0.25,0.5c0.125,0.28906 0.28516,0.66797 0.5,1.0625h-2.3125zM48,41.78125v2.21875h-2.3125c0.21484,-0.39453 0.375,-0.77344 0.5,-1.0625c0.14063,-0.32031 0.29297,-0.54297 0.25,-0.5c-0.04297,0.04297 0.16016,-0.09375 0.46875,-0.21875c0.30078,-0.12109 0.68359,-0.25391 1.09375,-0.4375z"></path></g></g></svg>