<svg xmlns="http://www.w3.org/2000/svg" xmlns:xlink="http://www.w3.org/1999/xlink" viewBox="0,0,256,256" width="48px" height="48px"><g fill="#ffffff" fill-rule="nonzero" stroke="none" stroke-width="1" stroke-linecap="butt" stroke-linejoin="miter" stroke-miterlimit="10" stroke-dasharray="" stroke-dashoffset="0" font-family="none" font-weight="none" font-size="none" text-anchor="none" style="mix-blend-mode: normal"><g transform="scale(5.33333,5.33333)"><path d="M15,7c-6.05756,0 -11,4.94244 -11,11c0,4.09615 3.08764,7.9529 6.85156,11.9082c3.76392,3.9553 8.39682,7.96127 12.08789,11.65234c0.58579,0.58555 1.5353,0.58555 2.12109,0c3.69107,-3.69107 8.32397,-7.69704 12.08789,-11.65234c3.76392,-3.9553 6.85156,-7.81205 6.85156,-11.9082c0,-6.05756 -4.94244,-11 -11,-11c-3.47644,0 -6.50318,1.86649 -9,5.03711c-2.49682,-3.17062 -5.52356,-5.03711 -9,-5.03711zM15,10c2.92857,0 5.3663,1.5584 7.73242,5.30078c0.275,0.43448 0.75338,0.69784 1.26758,0.69784c0.5142,0 0.99257,-0.26336 1.26758,-0.69784c2.36612,-3.74238 4.80385,-5.30078 7.73242,-5.30078c4.43644,0 8,3.56356 8,8c0,2.40385 -2.41236,6.0471 -6.02344,9.8418c-3.29297,3.46041 -7.38625,7.07566 -10.97656,10.57617c-3.59031,-3.50052 -7.68359,-7.11576 -10.97656,-10.57617c-3.61108,-3.7947 -6.02344,-7.43795 -6.02344,-9.8418c0,-4.43644 3.56356,-8 8,-8z"></path></g></g></svg>