<svg xmlns="http://www.w3.org/2000/svg" xmlns:xlink="http://www.w3.org/1999/xlink" viewBox="0,0,256,256" width="50px" height="50px"><g fill="#ffffff" fill-rule="nonzero" stroke="none" stroke-width="1" stroke-linecap="butt" stroke-linejoin="miter" stroke-miterlimit="10" stroke-dasharray="" stroke-dashoffset="0" font-family="none" font-weight="none" font-size="none" text-anchor="none" style="mix-blend-mode: normal"><g transform="scale(5.12,5.12)"><path d="M2.79688,8c-1.96875,0.15625 -2.79687,1.76563 -2.79687,2.89063v26.10938c0,1.65234 1.34766,3 3,3h4.09375c0.47656,2.82813 2.94531,5 5.90625,5c2.96094,0 5.42969,-2.17187 5.90625,-5h12.09375v-29.09766c0,-1.54687 -1.35547,-2.90234 -2.90234,-2.90234zM15,13c4.94922,0 9,4.05078 9,9c0,4.94922 -4.05078,9 -9,9c-4.94922,0 -9,-4.05078 -9,-9c0,-4.94922 4.05078,-9 9,-9zM33,15v25h1.08984c0.47656,2.83203 2.94141,5 5.91016,5c2.96875,0 5.42969,-2.16797 5.91016,-5h1.08984c1.54297,0 3,-1.45703 3,-3v-9.59766c0,-1.96094 -1.41797,-4.04297 -1.59766,-4.29687l-4.12109,-5.52734c-0.76953,-0.96484 -2.34766,-2.57812 -4.28125,-2.57812zM14,16v5.5l-3.59766,2.69922l1.19531,1.60156l4.40234,-3.30078v-6.5zM38,17h2c0.78906,0 1.80469,0.68359 2.69922,1.79688l4.08203,5.47656c0.30078,0.43359 1.02344,1.66797 1.1875,2.72656h-8.96875c-0.44922,0 -1,-0.55078 -1,-1zM13,35c2.22266,0 4,1.77734 4,4c0,2.22266 -1.77734,4 -4,4c-2.22266,0 -4,-1.77734 -4,-4c0,-2.22266 1.77734,-4 4,-4zM40,35c2.20703,0 4,1.79297 4,4c0,2.20703 -1.79297,4 -4,4c-2.20703,0 -4,-1.79297 -4,-4c0,-2.20703 1.79297,-4 4,-4z"></path></g></g></svg>